<?xml version="1.0" encoding="utf-8"?>
<!-- Generator: Adobe Illustrator 25.2.0, SVG Export Plug-In . SVG Version: 6.00 Build 0)  -->
<svg version="1.1" id="Layer_1" xmlns="http://www.w3.org/2000/svg" xmlns:xlink="http://www.w3.org/1999/xlink" x="0px" y="0px"
	 viewBox="0 0 430 430" style="enable-background:new 0 0 430 430;" xml:space="preserve">
<style type="text/css">
	.st0{fill:#121331;}
	.st1{fill:#08A88A;}
</style>
<g>
	<path class="st0" d="M251.06,353.67c-0.41,0-0.81-0.01-1.22-0.03c-16.38-0.78-20.95-11.66-21.07-17.3c0-0.05,0-0.1,0-0.14
		l0.06-36.8c0-5.66-1.35-11.27-3.92-16.21c-17.9-34.52-48.66-42.61-53.34-43.66h-26.02c-3.31,0-6-2.69-6-6V103.57c0-3.31,2.69-6,6-6
		c31.32,0,33.33-1.11,41.78-5.76c2.2-1.21,4.93-2.71,8.54-4.45c3.52-1.69,6.96-3.25,10.22-4.62c10.06-4.25,20.7-6.41,31.6-6.41
		h92.26c0.4,0,0.74,0.03,0.99,0.06c11.42,0.69,20.36,9.77,20.84,21.22c0.19,4.52-1.03,8.23-3.04,11.23
		c10.63,2.77,18.07,12.15,18.07,23.95v3.46c0,5.66-2.14,10.6-5.49,14.54c10.07,3.18,17.19,12.69,17.19,24.23v6.57
		c0,7.85-4.4,14.29-10.64,18.51c6.47,5.1,10.94,12.56,10.94,20.09v3.84c0,14.09-11.52,25.56-25.69,25.56h-54.23
		c-6.57,0-11.32,1.37-13.74,3.96c-1.91,2.04-1.91,4.45-1.89,4.88c0.04,0.25,0.03,0.31,0.03,0.59c0.01,1.96,0.33,48.12,0,59.61
		c-0.27,9.31-5.3,19.84-12.83,26.81C264.67,350.85,257.98,353.67,251.06,353.67z M240.77,336c0.15,1.34,1.31,5.26,9.64,5.66
		c5.12,0.25,9.31-2.58,11.91-4.99c5.12-4.74,8.81-12.29,8.99-18.35c0.31-10.89,0.02-55.45,0-58.97c-0.12-1.8-0.14-8.1,4.79-13.63
		c4.79-5.38,12.47-8.11,22.81-8.11h54.23c7.42,0,13.69-6.21,13.69-13.56v-3.84c0-6.98-8.73-14.64-16.68-14.64c-3.31,0-6-2.69-6-6
		s2.69-6,6-6c7.73,0,16.38-5.12,16.38-11.96v-6.57c0-7.62-5.44-13.37-12.66-13.37c-0.11,0-0.22,0-0.33-0.01l-13.13-0.73
		c-2.87-0.16-5.22-2.33-5.61-5.18c-0.22-1.65,0.24-3.35,1.29-4.64s2.59-2.11,4.25-2.22c7-0.46,14.49-5.64,14.49-12.62v-3.46
		c0-7.41-5.38-12.78-12.78-12.78l-13.16-0.18c-3.13-0.04-5.7-2.49-5.9-5.61c-0.2-3.12,2.03-5.88,5.13-6.33
		c0.47-0.07,12.03-1.94,11.7-9.77c0,0,0,0,0,0c-0.22-5.31-4.39-9.5-9.7-9.76c-0.13-0.01-0.27-0.02-0.4-0.03h-92
		c-9.29,0-18.36,1.84-26.93,5.46c-3.09,1.3-6.35,2.78-9.7,4.39c-3.31,1.59-5.77,2.95-7.95,4.14c-9.97,5.49-13.92,7.05-41.57,7.23
		v117.98h20.32c0.64,0,1.28,0.07,1.91,0.2c4.14,0.88,40.94,9.74,61.79,49.94c3.44,6.64,5.26,14.16,5.26,21.74L240.77,336z
		 M240.77,336.1v0.12c0,0.01,0,0.01,0,0.01S240.77,336.15,240.77,336.1z M240.77,336.07L240.77,336.07L240.77,336.07z"/>
	<path class="st1" d="M145.55,257.89H57.17c-3.31,0-6-2.69-6-6V97.45c0-3.31,2.69-6,6-6h88.38c3.31,0,6,2.69,6,6v154.44
		C151.55,255.2,148.86,257.89,145.55,257.89z M63.17,245.89h76.38V103.45H63.17V245.89z"/>
</g>
</svg>
