<?xml version="1.0" encoding="utf-8"?>
<!-- Generator: Adobe Illustrator 24.1.2, SVG Export Plug-In . SVG Version: 6.00 Build 0)  -->
<svg version="1.1" id="Warstwa_3" xmlns="http://www.w3.org/2000/svg" xmlns:xlink="http://www.w3.org/1999/xlink" x="0px" y="0px"
	 viewBox="0 0 430 430" style="enable-background:new 0 0 430 430;" xml:space="preserve">
<style type="text/css">
	.st0{fill:#121331;}
	.st1{fill:#08A88A;}
	.st2{fill:none;stroke:#08A88A;stroke-width:12.25;stroke-miterlimit:14;}
	.st3{fill-opacity:0;}
	.st4{fill:#131432;}
	.st5{fill:none;}
</style>
<g>
	<path class="st0" d="M215,335.45c-0.86,0-1.71-0.17-2.52-0.52L31.41,257.37c-2.35-1.01-3.87-3.32-3.87-5.87s1.52-4.87,3.87-5.87
		l18.32-7.85c3.24-1.39,7,0.11,8.39,3.36c1.39,3.24-0.11,7-3.36,8.39l-4.61,1.98L215,322.11l164.85-70.61l-4.18-1.79
		c-3.24-1.39-4.75-5.14-3.36-8.39c1.39-3.24,5.14-4.75,8.39-3.36l17.89,7.66c2.35,1.01,3.87,3.32,3.87,5.87s-1.52,4.87-3.87,5.87
		l-181.07,77.56C216.71,335.28,215.86,335.45,215,335.45z"/>
	<path class="st1" d="M215,298.95c-0.86,0-1.71-0.17-2.52-0.52L31.41,220.87c-2.35-1.01-3.87-3.32-3.87-5.87s1.52-4.87,3.87-5.87
		l18.32-7.85c3.24-1.39,7,0.11,8.39,3.36c1.39,3.24-0.11,7-3.36,8.39L50.15,215L215,285.61L379.85,215l-4.18-1.79
		c-3.24-1.39-4.75-5.14-3.36-8.39c1.39-3.24,5.14-4.75,8.39-3.36l17.89,7.66c2.35,1.01,3.87,3.32,3.87,5.87s-1.52,4.87-3.87,5.87
		l-181.07,77.56C216.71,298.78,215.86,298.95,215,298.95z"/>
	<path class="st0" d="M215,262.45c-0.86,0-1.71-0.17-2.52-0.52L31.41,184.37c-2.35-1.01-3.87-3.32-3.87-5.87s1.52-4.87,3.87-5.87
		l181.07-77.56c1.61-0.69,3.42-0.69,5.03,0l181.07,77.56c2.35,1.01,3.87,3.32,3.87,5.87s-1.52,4.87-3.87,5.87l-181.07,77.56
		C216.71,262.28,215.86,262.45,215,262.45z M50.15,178.5L215,249.11l164.85-70.61L215,107.89L50.15,178.5z"/>
</g>
</svg>
